<svg xmlns="http://www.w3.org/2000/svg" viewBox="0 0 100 100"><defs><linearGradient id="hb" x1="0" y1="0" x2="1" y2="1"><stop offset="0" stop-color="#3a3a3a"/><stop offset="1" stop-color="#0d0d0d"/></linearGradient><linearGradient id="hs" x1="0" y1="0" x2="0" y2="1"><stop offset="0" stop-color="#fff" stop-opacity=".45"/><stop offset=".5" stop-color="#fff" stop-opacity="0"/></linearGradient></defs><path d="M50 88C14 62 8 38 22 24c10-10 24-6 28 6 4-12 18-16 28-6 14 14 8 38-28 64z" fill="url(#hb)"/><path d="M50 88C14 62 8 38 22 24c10-10 24-6 28 6 4-12 18-16 28-6 14 14 8 38-28 64z" fill="url(#hs)"/></svg>
